<svg id="Layer_3" height="512" viewBox="0 0 64 64" width="512" xmlns="http://www.w3.org/2000/svg" data-name="Layer 3"><path d="m12 52h20a10 10 0 0 1 10 10h-40a10 10 0 0 1 10-10z" fill="#3b5892"/><path d="m36 56v-3.162a9.957 9.957 0 0 0 -4-.838h-20a10 10 0 0 0 -9.162 6h31.162a2 2 0 0 0 2-2z" fill="#4c6cb5"/><g fill="#e2e7f6"><path d="m5 11h20v2h-20z"/><path d="m29.9 10h-16.9a1 1 0 0 1 -.707-.293l-4-4 1.414-1.414 3.707 3.707h16.486z"/><path d="m9.707 19.707-1.414-1.414 3-3a1 1 0 0 1 .707-.293h11v2h-10.586z"/></g><circle cx="51" cy="46" fill="#5e87ca" r="11"/><path d="m59 45a10.99 10.99 0 0 0 -6.061-9.819 10.99 10.99 0 0 0 -6.878 20.638 10.955 10.955 0 0 0 12.939-10.819z" fill="#78a0d4"/><path d="m24 32h20a8 8 0 0 0 2.57-15.57 7.986 7.986 0 0 0 -10.037-5.038 8 8 0 0 0 -14.533 4.608c0 .087.01.172.013.259a8 8 0 0 0 1.987 15.741z" fill="#c0dafc"/><path d="m51.748 26a8 8 0 0 0 -5.178-9.57 7.986 7.986 0 0 0 -10.037-5.038 8.026 8.026 0 0 0 -4.064-3 7.98 7.98 0 0 1 9-3 8 8 0 0 1 14.531 4.608c0 .087-.01.172-.013.259a8 8 0 0 1 -1.987 15.741z" fill="#78a0d4"/><path d="m26 49.064a8.96 8.96 0 0 1 -4 .936 8.96 8.96 0 0 1 -4-.936v2.936a4 4 0 0 0 4 4 4 4 0 0 0 4-4z" fill="#f2b9a1"/><path d="m31 36h2l.859-4.293a7.279 7.279 0 0 0 .141-1.428 7.279 7.279 0 0 0 -7.279-7.279h-2.221a1.5 1.5 0 0 1 -1.5-1.5 1.5 1.5 0 0 0 -1.5-1.5h-3.1a8.4 8.4 0 0 0 -8.4 8.4 8.432 8.432 0 0 0 .084 1.188l.916 6.412h2v-.929a5 5 0 0 1 1.464-3.535l2.829-2.829a2.414 2.414 0 0 1 1.707-.707 2.414 2.414 0 0 1 1.707.707l3.222 3.222a1.516 1.516 0 0 0 2.142 0 1.515 1.515 0 0 1 1.98-.141l2.149 1.612a2 2 0 0 1 .8 1.6z" fill="#976947"/><path d="m31 35v6a9 9 0 0 1 -9 9 9 9 0 0 1 -9-9v-5.929a5 5 0 0 1 1.464-3.535l2.829-2.829a2.414 2.414 0 0 1 1.707-.707 2.414 2.414 0 0 1 1.707.707l3.222 3.222a1.516 1.516 0 0 0 2.142 0 1.515 1.515 0 0 1 1.98-.141l2.149 1.612a2 2 0 0 1 .8 1.6z" fill="#fbe1ca"/><path d="m13 36h-2a3 3 0 0 0 -3 3 3 3 0 0 0 3 3h2" fill="#f2b9a1"/><path d="m31 36h2a3 3 0 0 1 3 3 3 3 0 0 1 -3 3h-2" fill="#f2b9a1"/><path d="m45 45 6-6 6 6h-3v8h-6v-8z" fill="#f2f2f2"/><circle cx="4" cy="12" fill="#f0ae42" r="2"/><circle cx="8" cy="4" fill="#b52f28" r="2"/><circle cx="8" cy="20" fill="#b52f28" r="2"/></svg>